#!OML:ASF H:\Not Pregnant\Project 1\Capture day 1\Session 1\non-pregnant.ASF
:FULLY-SPECIFIED
:DEGREES
1111
root 2.63536 15.7073 33.7952 12.6121 -16.1552 358.433
lowerback -1.50497 0.691831 0.892609
upperback -8.63571 0.87182 -0.647946
thorax -8.17148 0.320588 -1.22597
lowerneck 13.9337 -12.3955 -28.7308
upperneck -8.56756 -21.2071 42.5811
head 4.22532 -12.5554 19.6622
rclavicle -7.82715e-014 4.77083e-015
rhumerus -31.7754 4.27926 -83.6735
rradius 62.3108
rwrist -5.98025
rhand -15.6205 -22.9551
rfingers 7.12502
rthumb 10.5662 -52.6695
lclavicle -7.82715e-014 4.77083e-015
lhumerus -41.7818 -10.1087 78.4681
lradius 65.2054
lwrist 54.1489
lhand -24.9928 4.54253
lfingers 7.12502
lthumb 1.51857 34.5169
rfemur -32.4906 6.13722 17.4444
rtibia 57.9086
rfoot -13.5942 2.28719
rtoes -27.9887
lfemur -32.9428 3.54267 -20.5498
ltibia 31.4481
lfoot -9.60665 -5.78367
ltoes -21.3785
1112
root 2.64254 15.7131 33.842 12.6894 -16.276 358.4
lowerback -1.5309 0.664257 0.897725
upperback -8.61401 0.836363 -0.616745
thorax -8.13379 0.304267 -1.1934
lowerneck 13.9767 -12.3976 -28.7311
upperneck -8.59918 -21.2085 42.5519
head 4.20304 -12.5594 19.6493
rclavicle -4.06515e-014 -1.63003e-014
rhumerus -31.7927 4.24277 -83.7087
rradius 62.285
rwrist -5.84289
rhand -15.6464 -22.921
rfingers 7.12502
rthumb 10.5412 -52.6367
lclavicle -4.06515e-014 -1.63003e-014
lhumerus -41.8414 -9.9534 78.4506
lradius 65.1421
lwrist 54.1002
lhand -25.0005 4.43617
lfingers 7.12502
lthumb 1.51113 34.4106
rfemur -32.7458 6.04388 17.4624
rtibia 57.041
rfoot -14.0947 1.48171
rtoes -27.6084
lfemur -32.8165 3.69064 -20.6166
ltibia 31.4259
lfoot -9.78029 -5.7914
ltoes -21.2467
1113
root 2.64882 15.7178 33.8875 12.7817 -16.4107 358.34
lowerback -1.5628 0.648519 0.915529
upperback -8.59765 0.817764 -0.575916
thorax -8.09799 0.29573 -1.15875
lowerneck 14.0257 -12.3937 -28.7379
upperneck -8.62581 -21.2049 42.5232
head 4.17993 -12.5614 19.6409
rclavicle -2.23633e-016 1.35174e-014
rhumerus -31.807 4.22321 -83.724
rradius 62.2267
rwrist -5.67084
rhand -15.6185 -22.8363
rfingers 7.12502
rthumb 10.5682 -52.5506
lclavicle -2.23633e-016 1.35174e-014
lhumerus -41.8871 -9.79178 78.4446
lradius 65.068
lwrist 54.048
lhand -25.0086 4.31664
lfingers 7.12502
lthumb 1.50327 34.2911
rfemur -32.9827 5.98895 17.5131
rtibia 56.0791
rfoot -14.558 0.741211
rtoes -27.1984
lfemur -32.7124 3.79678 -20.6359
ltibia 31.4259
lfoot -9.94813 -5.73095
ltoes -21.1692
1114
root 2.65496 15.7227 33.9342 12.8729 -16.5579 358.283
lowerback -1.62642 0.645279 0.943725
upperback -8.57784 0.815645 -0.539913
thorax -8.03928 0.294609 -1.13543
lowerneck 14.0815 -12.3844 -28.7485
upperneck -8.64757 -21.1967 42.4956
head 4.15585 -12.5616 19.6368
rclavicle -2.15184e-014 -6.36111e-015
rhumerus -31.8176 4.20506 -83.719
rradius 62.1414
rwrist -5.47954
rhand -15.5322 -22.7137
rfingers 7.12502
rthumb 10.6514 -52.4237
lclavicle -2.15184e-014 -6.36111e-015
lhumerus -41.9161 -9.62947 78.4481
lradius 64.9832
lwrist 53.9901
lhand -25.0081 4.18197
lfingers 7.12502
lthumb 1.50371 34.1564
rfemur -33.1688 5.93994 17.5618
rtibia 55.0218
rfoot -15.0113 0.0798825
rtoes -26.8377
lfemur -32.6001 3.8564 -20.6467
ltibia 31.4384
lfoot -10.122 -5.59988
ltoes -21.1289
1115
root 2.66027 15.7267 33.9792 12.982 -16.7224 358.203
lowerback -1.69157 0.654961 0.981831
upperback -8.56121 0.831493 -0.497756
thorax -7.98272 0.301914 -1.11215
lowerneck 14.114 -12.3806 -28.7545
upperneck -8.65262 -21.1935 42.4586
head 4.13996 -12.5607 19.6218
rclavicle -1.42876e-014 -1.90833e-014
rhumerus -31.8159 4.19503 -83.7004
rradius 62.04
rwrist -5.3099
rhand -15.4354 -22.6005
rfingers 7.12502
rthumb 10.7448 -52.3057
lclavicle -1.42876e-014 -1.90833e-014
lhumerus -41.9356 -9.46389 78.4583
lradius 64.9077
lwrist 53.9222
lhand -25.0062 4.06604
lfingers 7.12502
lthumb 1.50555 34.0405
rfemur -33.3432 5.93339 17.6392
rtibia 53.8868
rfoot -15.4183 -0.542434
rtoes -26.4963
lfemur -32.5133 3.87621 -20.6158
ltibia 31.4684
lfoot -10.2823 -5.40469
ltoes -21.1205
1116
root 2.66521 15.7311 34.0251 13.095 -16.8837 358.118
lowerback -1.78277 0.677144 1.03364
upperback -8.54622 0.863736 -0.46219
thorax -7.91213 0.316227 -1.10394
lowerneck 14.1539 -12.3754 -28.7508
upperneck -8.64746 -21.1903 42.4203
head 4.12371 -12.5602 19.6057
rclavicle -6.16232e-014 -2.3059e-014
rhumerus -31.8284 4.18308 -83.6668
rradius 61.94
rwrist -5.19759
rhand -15.3558 -22.5267
rfingers 7.12502
rthumb 10.8216 -52.2279
lclavicle -6.16232e-014 -2.3059e-014
lhumerus -41.9542 -9.33193 78.4857
lradius 64.847
lwrist 53.845
lhand -25.0214 3.98622
lfingers 7.12502
lthumb 1.49094 33.9608
rfemur -33.4698 5.92845 17.7276
rtibia 52.6744
rfoot -15.8047 -1.12509
rtoes -26.2023
lfemur -32.4215 3.85623 -20.5721
ltibia 31.502
lfoot -10.4424 -5.16466
ltoes -21.132
1117
root 2.66946 15.7352 34.07 13.2137 -17.0504 358.027
lowerback -1.88261 0.711217 1.09219
upperback -8.53202 0.911913 -0.426395
thorax -7.83694 0.338056 -1.09983
lowerneck 14.1934 -12.3681 -28.751
upperneck -8.63556 -21.1854 42.3767
head 4.10812 -12.558 19.5881
rclavicle 5.25537e-014 -1.98785e-015
rhumerus -31.8436 4.17842 -83.6171
rradius 61.8368
rwrist -5.12818
rhand -15.3045 -22.4569
rfingers 7.12502
rthumb 10.871 -52.1556
lclavicle 5.25537e-014 -1.98785e-015
lhumerus -41.9605 -9.20086 78.5235
lradius 64.7949
lwrist 53.7477
lhand -25.0274 3.96794
lfingers 7.12502
lthumb 1.48514 33.9425
rfemur -33.5728 5.9568 17.8292
rtibia 51.4021
rfoot -16.1633 -1.68118
rtoes -25.9236
lfemur -32.3403 3.81051 -20.5114
ltibia 31.5454
lfoot -10.5938 -4.88853
ltoes -21.1531
1118
root 2.67358 15.7397 34.1155 13.3221 -17.2041 357.944
lowerback -1.98722 0.746179 1.15428
upperback -8.51991 0.961056 -0.391583
thorax -7.76122 0.360116 -1.09862
lowerneck 14.2327 -12.3534 -28.7543
upperneck -8.60892 -21.1724 42.3221
head 4.09131 -12.5502 19.5681
rclavicle -2.03257e-014 -2.34566e-014
rhumerus -31.8732 4.19513 -83.5558
rradius 61.7331
rwrist -5.09508
rhand -15.2855 -22.3979
rfingers 7.12502
rthumb 10.8894 -52.0955
lclavicle -2.03257e-014 -2.34566e-014
lhumerus -41.9677 -9.06764 78.5723
lradius 64.7476
lwrist 53.6373
lhand -25.0248 3.98952
lfingers 7.12502
lthumb 1.48758 33.9641
rfemur -33.6263 5.98319 17.9285
rtibia 50.0754
rfoot -16.5186 -2.18732
rtoes -25.6521
lfemur -32.2458 3.74466 -20.4588
ltibia 31.5919
lfoot -10.7522 -4.60315
ltoes -21.174
1119
root 2.67706 15.7436 34.1596 13.4298 -17.3492 357.854
lowerback -2.07736 0.784195 1.22096
upperback -8.51499 1.01466 -0.352877
thorax -7.7017 0.384091 -1.09626
lowerneck 14.2736 -12.3315 -28.7581
upperneck -8.57371 -21.1496 42.2568
head 4.07033 -12.5365 19.5458
rclavicle -1.86609e-014 -1.03368e-014
rhumerus -31.9122 4.22483 -83.4849
rradius 61.627
rwrist -5.08778
rhand -15.2914 -22.3547
rfingers 7.12502
rthumb 10.8837 -52.0527
lclavicle -1.86609e-014 -1.03368e-014
lhumerus -41.9668 -8.93241 78.6294
lradius 64.6961
lwrist 53.5194
lhand -25.0051 4.03781
lfingers 7.12502
lthumb 1.50666 34.0122
rfemur -33.6597 6.03433 18.0434
rtibia 48.7148
rfoot -16.8587 -2.63933
rtoes -25.367
lfemur -32.164 3.67579 -20.3967
ltibia 31.6557
lfoot -10.9128 -4.32059
ltoes -21.1842
1120
root 2.68004 15.7469 34.2035 13.5261 -17.4812 357.771
lowerback -2.15769 0.818819 1.28633
upperback -8.51137 1.06373 -0.312906
thorax -7.64949 0.405921 -1.09169
lowerneck 14.3037 -12.3011 -28.7607
upperneck -8.52724 -21.1124 42.1817
head 4.04648 -12.5135 19.5215
rclavicle 1.2921e-015 8.74653e-015
rhumerus -31.9506 4.26791 -83.4104
rradius 61.5132
rwrist -5.08299
rhand -15.3027 -22.3288
rfingers 7.12502
rthumb 10.8728 -52.0273
lclavicle 1.2921e-015 8.74653e-015
lhumerus -41.9558 -8.7845 78.6866
lradius 64.6369
lwrist 53.4024
lhand -24.9574 4.08824
lfingers 7.12502
lthumb 1.55274 34.0623
rfemur -33.6595 6.09091 18.1622
rtibia 47.3302
rfoot -17.2005 -2.99782
rtoes -25.0974
lfemur -32.0837 3.61168 -20.3427
ltibia 31.7412
lfoot -11.0906 -4.05166
ltoes -21.1927
1121
root 2.68171 15.7482 34.245 13.62 -17.6049 357.674
lowerback -2.20884 0.854001 1.3499
upperback -8.51557 1.11427 -0.266028
thorax -7.62289 0.42863 -1.07943
lowerneck 14.3297 -12.2614 -28.7629
upperneck -8.46954 -21.0618 42.0965
head 4.01885 -12.4823 19.4955
rclavicle -2.96935e-014 -2.18663e-014
rhumerus -31.9911 4.31145 -83.3313
rradius 61.3942
rwrist -5.07409
rhand -15.3056 -22.3356
rfingers 7.12502
rthumb 10.87 -52.0343
lclavicle -2.96935e-014 -2.18663e-014
lhumerus -41.9354 -8.63535 78.7455
lradius 64.5671
lwrist 53.2938
lhand -24.8853 4.13303
lfingers 7.12502
lthumb 1.62236 34.1066
rfemur -33.6502 6.1821 18.3073
rtibia 45.9411
rfoot -17.5177 -3.24406
rtoes -24.8303
lfemur -32.0305 3.5652 -20.2716
ltibia 31.8668
lfoot -11.2829 -3.8042
ltoes -21.1637
1122
root 2.68228 15.7481 34.2862 13.7047 -17.7069 357.577
lowerback -2.25483 0.886633 1.41547
upperback -8.52213 1.16145 -0.219338
thorax -7.60194 0.449476 -1.06839
lowerneck 14.3502 -12.2102 -28.7652
upperneck -8.39412 -20.9967 42.0069
head 3.99027 -12.4425 19.4716
rclavicle -4.12478e-015 -2.5842e-015
rhumerus -32.033 4.33826 -83.2476
rradius 61.2649
rwrist -5.04278
rhand -15.2797 -22.3858
rfingers 7.12502
rthumb 10.8949 -52.0832
lclavicle -4.12478e-015 -2.5842e-015
lhumerus -41.9108 -8.49797 78.8081
lradius 64.4876
lwrist 53.2024
lhand -24.7913 4.15133
lfingers 7.12502
lthumb 1.71317 34.1242
rfemur -33.6133 6.26681 18.4686
rtibia 44.5564
rfoot -17.8216 -3.31956
rtoes -24.6231
lfemur -31.9925 3.53801 -20.2019
ltibia 32.0343
lfoot -11.504 -3.59249
ltoes -21.0903
1123
root 2.68121 15.7455 34.3252 13.786 -17.7912 357.473
lowerback -2.28892 0.918332 1.479
upperback -8.5273 1.20749 -0.173142
thorax -7.58643 0.469876 -1.05683
lowerneck 14.3461 -12.1518 -28.7622
upperneck -8.29801 -20.9186 41.9148
head 3.96556 -12.3934 19.4468
rclavicle -4.60932e-014 -7.35503e-015
rhumerus -32.0667 4.33464 -83.1628
rradius 61.1218
rwrist -4.95933
rhand -15.2309 -22.4284
rfingers 7.12502
rthumb 10.9421 -52.1232
lclavicle -4.60932e-014 -7.35503e-015
lhumerus -41.8664 -8.37302 78.8665
lradius 64.3978
lwrist 53.1312
lhand -24.6794 4.16968
lfingers 7.12502
lthumb 1.82123 34.1416
rfemur -33.5688 6.36265 18.6523
rtibia 43.1921
rfoot -18.099 -3.19515
rtoes -24.4692
lfemur -31.9857 3.54086 -20.1251
ltibia 32.2471
lfoot -11.7473 -3.42173
ltoes -21.0075
1124
root 2.67842 15.741 34.3636 13.8579 -17.8502 357.381
lowerback -2.33024 0.949471 1.52853
upperback -8.53315 1.2517 -0.137249
thorax -7.56752 0.489976 -1.04801
lowerneck 14.3361 -12.0813 -28.748
upperneck -8.18054 -20.8244 41.8258
head 3.94032 -12.3357 19.4265
rclavicle 9.13664e-014 1.21259e-014
rhumerus -32.1029 4.27877 -83.0735
rradius 60.9617
rwrist -4.82607
rhand -15.1383 -22.4619
rfingers 7.12502
rthumb 11.0313 -52.152
lclavicle 9.13664e-014 1.21259e-014
lhumerus -41.8131 -8.29577 78.9294
lradius 64.2992
lwrist 53.0879
lhand -24.5752 4.19578
lfingers 7.12502
lthumb 1.92183 34.1669
rfemur -33.5066 6.43915 18.8417
rtibia 41.8601
rfoot -18.3429 -2.83415
rtoes -24.4257
lfemur -31.9942 3.57387 -20.0639
ltibia 32.4883
lfoot -12.0138 -3.30537
ltoes -20.8969
